<svg xmlns="http://www.w3.org/2000/svg" version="1.1" xmlns:xlink="http://www.w3.org/1999/xlink" xmlns:svgjs="http://svgjs.dev/svgjs" viewBox="0 0 1422 800"><defs><filter id="uuunion-blur" x="-100%" y="-100%" width="400%" height="400%" color-interpolation-filters="sRGB">
        <feGaussianBlur in="SourceGraphic" stdDeviation="12.5 0" result="blur"></feGaussianBlur>
        <feDropShadow stdDeviation="12.307692307692308" in="blur" dx="10" dy="10" flood-color="hsl(173, 90%, 27%)" flood-opacity="0.25" x="0%" y="0%" width="100%" height="100%"></feDropShadow>
      </filter><filter id="uuunion-blur2" x="-100%" y="-100%" width="400%" height="400%" color-interpolation-filters="sRGB">
        <feGaussianBlur in="SourceGraphic" stdDeviation="12.5 0" result="blur"></feGaussianBlur>
        <feDropShadow stdDeviation="12.307692307692308" in="blur" dx="-10" dy="-10" flood-color="hsl(173, 90%, 27%)" flood-opacity="0.25" x="0%" y="0%" width="100%" height="100%"></feDropShadow>
      </filter><linearGradient gradientTransform="rotate(0, 0.5, 0.5)" x1="50%" y1="0%" x2="50%" y2="100%" id="uuunion-grad"><stop stop-color="hsl(158, 78%, 43%)" offset="10%"></stop><stop stop-color="hsl(173, 90%, 27%)" offset="90%"></stop></linearGradient><linearGradient gradientTransform="rotate(135, 0.5, 0.5)" x1="50%" y1="0%" x2="50%" y2="100%" id="uuunion-grad2"><stop stop-color="hsl(158, 78%, 43%)" offset="25%"></stop><stop stop-color="hsl(173, 90%, 27%)" offset="100%"></stop></linearGradient><linearGradient gradientTransform="rotate(333, 0.5, 0.5)" x1="50%" y1="0%" x2="50%" y2="100%" id="uuunion-grad3"><stop stop-color="hsl(158, 78%, 43%)" offset="0%"></stop><stop stop-color="hsl(173, 90%, 27%)" offset="75%"></stop></linearGradient></defs><path d="M-131.62 -87.25Q-118.63 -85.87 -105.64 -84.15 -92.65 -82.21 -79.65 -80.14 -66.66 -78.06 -53.67 -76.09 -40.68 -74.34 -27.69 -72.91 -14.69 -71.88 -1.7 -71.31 11.28 -71.22 24.27 -71.63 37.26 -72.52 50.25 -73.82 63.25 -75.48 76.24 -77.39 89.23 -79.44 102.22 -81.53 115.21 -83.53 128.21 -85.33 141.2 -86.83 154.19 -87.94 167.18 -88.61 180.17 -88.79 193.17 -88.47 206.16 -87.68 219.15 -86.45 232.14 -84.86 245.13 -83 258.12 -80.96 271.12 -78.87 284.11 -76.84 297.1 -74.99 310.09 -73.43 323.08 -72.23 336.08 -71.47 349.07 -71.2 362.06 -71.41 375.05 -72.12 388.04 -73.26 401.03 -74.79 414.03 -76.61 427.02 -78.62 440.01 -80.71 453 -82.76 465.99 -84.65 478.99 -86.28 491.98 -87.56 504.97 -88.4 517.96 -88.78 530.95 -88.66 543.95 -88.05 556.94 -86.98 569.93 -85.53 582.92 -83.76 595.91 -81.77 608.9 -79.69 621.9 -77.63 634.89 -75.69 647.88 -74.01 660.87 -72.65 673.86 -71.72 686.86 -71.25 699.85 -71.27 712.84 -71.78 725.83 -72.76 738.82 -74.15 751.82 -75.87 764.81 -77.81 777.8 -79.89 790.79 -81.96 803.78 -83.93 816.77 -85.68 829.77 -87.1 842.76 -88.12 855.75 -88.69 868.74 -88.76 881.73 -88.34 894.73 -87.45 907.72 -86.14 920.71 -84.48 933.7 -82.57 946.69 -80.52 959.69 -78.43 972.68 -76.43 985.67 -74.63 998.66 -73.14 1011.65 -72.03 1024.64 -71.37 1037.64 -71.2 1050.63 -71.52 1063.62 -72.33 1076.61 -73.56 1089.6 -75.16 1102.6 -77.03 1115.59 -79.06 1128.58 -81.15 1141.57 -83.18 1154.56 -85.02 1167.56 -86.58 1180.55 -87.77 1193.54 -88.52 1206.53 -88.79 1219.52 -88.57 1232.52 -87.86 1245.51 -86.7 1258.5 -85.17 1271.49 -83.35 1284.48 -81.34 1297.48 -79.25 1310.47 -77.2 1323.46 -75.31 1336.45 -73.69 1349.44 -72.42 1362.44 -71.58 1375.43 -71.21 1388.42 -71.34 1401.41 -71.96 1414.4 -73.03 1427.39 -74.49 1440.39 -76.26 1453.38 -78.25 1466.37 -80.33 1479.36 -82.4 1492.35 -84.32 1505.35 -86.01 1518.34 -87.35 1531.33 -88.28 1530.45 -73.5 1533.45 -58.71 1539.99 -43.92 1549.31 -29.13 1560.35 -14.34 1571.83 0.43 1582.43 15.22 1590.94 30.01 1596.36 44.8 1598.08 59.59 1595.91 74.37 1590.08 89.16 1581.27 103.95 1570.5 118.74 1559 133.53 1548.1 148.31 1539.05 163.1 1532.9 177.89 1530.35 192.68 1531.69 207.47 1536.78 222.25 1545.02 237.04 1555.47 251.83 1566.92 266.62 1578.06 281.41 1587.6 296.19 1594.45 310.98 1597.82 325.77 1597.32 340.56 1593 355.35 1585.37 370.13 1575.3 384.92 1563.96 399.71 1552.64 414.5 1542.65 429.29 1535.14 444.07 1530.97 458.86 1530.63 473.65 1534.16 488.44 1541.13 503.23 1550.77 518.02 1561.95 532.8 1573.38 547.59 1583.76 562.38 1591.89 577.17 1596.83 591.96 1598.01 606.74 1595.31 621.53 1589.02 636.32 1579.87 651.11 1568.92 665.9 1557.42 680.68 1546.71 695.47 1538.01 710.26 1532.32 725.05 1530.3 739.84 1532.18 754.62 1537.75 769.41 1546.36 784.2 1557.02 798.99 1568.51 813.78 1579.5 828.56 1588.73 843.35 1595.14 858.14 1581.49 860.59 1567.84 864.14 1554.19 868.58 1540.54 873.66 1526.89 879.11 1513.24 884.6 1499.59 889.83 1485.93 894.51 1472.28 898.37 1458.63 901.19 1444.98 902.82 1431.33 903.16 1417.68 902.19 1404.03 899.97 1390.38 896.63 1376.73 892.34 1363.08 887.36 1349.43 881.97 1335.78 876.46 1322.13 871.15 1308.48 866.35 1294.82 862.31 1281.17 859.27 1267.52 857.39 1253.87 856.8 1240.22 857.51 1226.57 859.49 1212.92 862.62 1199.27 866.74 1185.62 871.6 1171.97 876.94 1158.32 882.45 1144.67 887.82 1131.02 892.75 1117.37 896.96 1103.72 900.21 1090.06 902.33 1076.41 903.18 1062.76 902.72 1049.11 900.99 1035.46 898.07 1021.81 894.13 1008.16 889.39 994.51 884.12 980.86 878.62 967.21 873.2 953.56 868.16 939.91 863.79 926.26 860.33 912.61 857.98 898.95 856.88 885.3 857.07 871.65 858.56 858 861.26 844.35 865.02 830.7 869.62 817.05 874.8 803.4 880.28 789.75 885.74 776.1 890.88 762.45 895.41 748.8 899.06 735.15 901.64 721.5 903 707.85 903.06 694.2 901.82 680.54 899.35 666.89 895.79 653.24 891.33 639.59 886.24 625.94 880.8 612.29 875.31 598.64 870.08 584.99 865.41 571.34 861.57 557.69 858.76 544.04 857.16 530.39 856.84 516.74 857.83 503.09 860.06 489.44 863.42 475.78 867.72 462.13 872.71 448.48 878.11 434.83 883.62 421.18 888.92 407.53 893.72 393.88 897.74 380.23 900.76 366.58 902.62 352.93 903.19 339.28 902.46 325.63 900.46 311.98 897.31 298.33 893.18 284.68 888.3 271.03 882.96 257.38 877.45 243.72 872.09 230.07 867.17 216.42 862.97 202.77 859.73 189.12 857.64 175.47 856.81 161.82 857.28 148.17 859.04 134.52 861.98 120.87 865.93 107.22 870.68 93.57 875.95 79.92 881.45 66.27 886.87 52.62 891.9 38.97 896.26 25.31 899.71 11.66 902.04 -1.98 903.12 -15.63 902.9 -29.28 901.39 -42.93 898.68 -56.58 894.91 -70.23 890.3 -83.88 885.1 -97.53 879.62 -111.18 874.16 -124.83 869.03 -138.48 864.52 -152.13 860.88 -150.07 846.07 -147.11 831.25 -143.57 816.44 -139.88 801.62 -136.45 786.81 -133.68 771.99 -131.89 757.18 -131.29 742.36 -131.94 727.55 -133.77 712.73 -136.56 697.92 -140.01 683.1 -143.7 668.29 -147.22 653.48 -150.16 638.66 -152.19 623.85 -153.06 609.03 -152.68 594.22 -151.09 579.4 -148.48 564.59 -145.14 549.77 -141.46 534.96 -137.87 520.14 -134.77 505.33 -132.53 490.51 -131.4 475.7 -131.51 460.89 -132.84 446.07 -135.26 431.26 -138.47 416.44 -142.11 401.63 -145.76 386.81 -148.99 372 -151.45 357.18 -152.83 342.37 -152.99 327.55 -151.91 312.74 -149.71 297.92 -146.64 283.11 -143.06 268.3 -139.38 253.48 -136.02 238.67 -133.37 223.85 -131.74 209.04 -131.3 194.22 -132.12 179.41 -134.1 164.59 -137.01 149.78 -140.52 134.96 -144.21 120.15 -147.67 105.33 -150.51 90.52 -152.38 75.71 -153.08 60.89 -152.53 46.08 -150.78 31.26 -148.05 16.45 -144.64 1.63 -140.95 -13.17 -137.4 -27.99 -134.4 -42.8 -132.3 -57.62 -131.34 -72.43 -131.62 -87.25" fill="url(#uuunion-grad)"></path><path d="M-131.63 -87.25Q-131.35 -72.43 -132.31 -57.62 -134.41 -42.8 -137.41 -27.99 -140.96 -13.17 -144.65 1.63 -148.06 16.45 -150.79 31.26 -152.54 46.07 -153.09 60.89 -152.39 75.7 -150.52 90.52 -147.68 105.33 -144.22 120.15 -140.53 134.96 -137.02 149.78 -134.11 164.59 -132.13 179.41 -131.31 194.22 -131.75 209.04 -133.38 223.85 -136.03 238.66 -139.39 253.48 -143.07 268.29 -146.65 283.11 -149.72 297.92 -151.92 312.74 -153 327.55 -152.84 342.37 -151.46 357.18 -149 372 -145.77 386.81 -136.8 388.41 -127.84 390.3 -118.87 392.43 -109.91 394.75 -100.95 397.21 -91.98 399.73 -83.02 402.27 -74.05 404.74 -65.09 407.1 -56.13 409.27 -47.16 411.22 -38.2 412.88 -29.23 414.22 -20.27 415.2 -3.33 415.94 -0.34 415.98 10.39 412.39 21.18 408.19 32.02 403.44 42.91 398.19 53.86 392.54 64.85 386.59 75.89 380.44 86.98 374.22 98.12 368.05 109.29 362.05 120.51 356.32 131.76 350.98 143.04 346.1 154.35 341.74 165.69 337.96 177.05 334.78 188.42 332.18 199.8 330.16 211.2 328.66 222.59 327.62 233.99 326.95 245.38 326.56 256.76 326.33 268.13 326.15 279.47 325.91 290.8 325.49 302.1 324.79 313.37 323.72 324.61 322.2 335.82 320.17 346.98 317.58 358.11 314.43 369.2 310.72 380.24 306.47 391.24 301.73 402.2 296.57 413.11 291.07 423.98 285.32 434.8 279.43 445.59 273.51 456.33 267.66 467.03 261.99 477.7 256.61 488.33 251.59 498.94 247.01 509.51 242.93 520.07 239.37 530.6 236.34 541.12 233.85 551.63 231.87 562.14 230.33 572.64 229.19 583.15 228.36 593.68 227.75 604.21 227.26 614.77 226.78 625.36 226.21 635.97 225.46 646.63 224.43 657.32 223.04 668.06 221.22 678.86 218.94 689.71 216.15 700.62 212.85 711.6 209.06 722.64 204.79 733.75 200.1 744.94 195.05 756.2 189.72 767.54 184.2 778.96 178.58 790.46 172.96 802.04 167.44 813.69 162.11 825.43 157.05 837.24 152.35 849.13 148.05 861.09 144.2 873.12 140.83 885.21 137.93 897.37 135.51 909.58 133.52 921.84 131.93 934.15 130.66 946.5 129.64 958.88 128.79 971.29 128.02 983.72 127.24 996.16 126.35 1008.61 125.26 1021.05 123.91 1033.48 122.22 1045.89 120.13 1058.27 117.63 1070.61 114.67 1082.91 111.26 1095.15 107.41 1107.33 103.16 1119.45 98.55 1131.48 93.64 1143.43 88.51 1155.29 83.23 1167.05 77.9 1178.71 72.59 1190.26 67.39 1201.69 62.39 1213 57.65 1224.18 53.23 1235.24 49.19 1246.17 45.55 1256.97 42.33 1267.63 39.53 1278.16 37.14 1288.55 35.12 1298.81 33.43 1308.94 32.01 1318.95 30.78 1328.82 29.68 1338.58 28.62 1348.22 27.52 1357.75 26.31 1367.18 24.9 1376.51 23.24 1385.75 21.27 1394.91 18.95 1403.99 16.25 1413.02 13.15 1422 9.66 1410.31 -8.09 1400.45 -25.84 1393.96 -43.59 1391.84 -61.35 1394.43 -79.1 1401.32 -96.85 1411.44 -114.61 1423.21 -132.36 1410.88 -132.1 1398.56 -132.22 1386.23 -132.72 1373.91 -133.56 1361.58 -134.72 1349.26 -136.13 1336.93 -137.72 1324.6 -139.43 1312.28 -141.16 1299.95 -142.84 1287.63 -144.37 1275.3 -145.7 1262.98 -146.76 1250.65 -147.49 1238.33 -147.85 1226 -147.84 1213.67 -147.45 1201.35 -146.71 1189.02 -145.63 1176.7 -144.29 1164.37 -142.74 1152.05 -141.06 1139.72 -139.33 1127.4 -137.63 1115.07 -136.04 1102.75 -134.64 1090.42 -133.51 1078.09 -132.68 1065.77 -132.21 1053.44 -132.11 1041.12 -132.39 1028.79 -133.03 1016.47 -134.02 1004.14 -135.29 991.82 -136.78 979.49 -138.43 967.16 -140.16 954.84 -141.88 942.51 -143.51 930.19 -144.97 917.86 -146.19 905.54 -147.11 893.21 -147.69 880.89 -147.89 868.56 -147.72 856.24 -147.18 843.91 -146.29 831.58 -145.1 819.26 -143.66 806.93 -142.04 794.61 -140.33 782.28 -138.6 769.96 -136.94 757.63 -135.42 745.31 -134.13 732.98 -133.12 720.65 -132.43 708.33 -132.12 696 -132.18 683.68 -132.62 671.35 -133.41 659.03 -134.52 646.7 -135.89 634.38 -137.47 622.05 -139.16 609.73 -140.89 597.4 -142.58 585.07 -144.15 572.75 -145.51 560.42 -146.61 548.1 -147.4 535.77 -147.82 523.45 -147.87 511.12 -147.54 498.8 -146.84 486.47 -145.82 474.14 -144.52 461.82 -142.99 449.49 -141.33 437.17 -139.6 424.84 -137.89 412.52 -136.28 400.19 -134.85 387.87 -133.66 375.54 -132.79 363.22 -132.25 350.89 -132.1 338.56 -132.32 326.24 -132.91 313.91 -133.84 301.59 -135.07 289.26 -136.54 276.94 -138.17 264.61 -139.89 252.29 -141.62 239.96 -143.26 227.63 -144.75 215.31 -146.01 202.98 -146.99 190.66 -147.62 178.33 -147.89 166.01 -147.77 153.68 -147.29 141.36 -146.45 129.03 -145.3 116.71 -143.89 104.38 -142.3 92.05 -140.6 79.73 -138.87 67.4 -137.19 55.08 -135.65 42.75 -134.31 30.43 -133.25 18.1 -132.52 5.78 -132.14 -6.54 -132.14 -18.87 -132.53 -31.19 -133.27 -43.52 -134.33 -55.84 -135.67 -68.17 -137.21 -80.49 -138.89 -92.82 -140.63 -105.14 -142.33 -117.47 -143.92 -129.79 -145.32 -144.93 -139.4 -141.48 -117.33 -136.02 -102.31 -131.63 -87.25" fill="url(#uuunion-grad2)" filter="url(#uuunion-blur)"></path><path d="M1447.21 334.3Q1456.29 333.52 1465.37 332.39 1474.45 330.96 1483.54 329.25 1492.62 327.31 1501.7 325.19 1510.78 322.93 1519.86 320.6 1528.95 318.26 1538.03 315.96 1547.11 313.76 1556.19 311.71 1565.28 309.88 1574.36 308.3 1583.44 307.01 1592.52 306.05 1597.52 323.31 1597.32 340.56 1591.94 357.81 1582.23 375.06 1569.71 392.32 1556.33 409.57 1544.17 426.82 1535.14 444.07 1530.65 461.33 1531.39 478.58 1537.25 495.83 1547.33 513.09 1560.03 530.34 1573.38 547.59 1585.3 564.84 1593.93 582.1 1597.91 599.35 1596.63 616.6 1590.29 633.85 1579.87 651.11 1567 668.36 1553.7 685.61 1542.04 702.87 1533.83 720.12 1530.37 737.37 1532.18 754.62 1539 771.88 1549.74 789.13 1562.75 806.38 1575.98 823.63 1587.37 840.89 1595.14 858.14 1582.62 860.35 1570.1 863.48 1557.58 867.41 1545.06 871.93 1532.53 876.83 1520.01 881.88 1507.49 886.85 1494.97 891.49 1482.45 895.58 1469.93 898.93 1457.41 901.39 1444.89 902.82 1432.37 903.18 1419.84 902.43 1407.32 900.62 1394.8 897.82 1382.28 894.18 1369.76 889.87 1357.24 885.09 1344.72 880.06 1332.2 875.04 1319.67 870.25 1307.15 865.92 1294.63 862.26 1282.11 859.44 1269.59 857.6 1257.07 856.82 1244.55 857.14 1232.03 858.55 1219.51 860.98 1206.98 864.31 1194.46 868.38 1181.94 873.01 1169.42 877.97 1156.9 883.02 1144.38 887.93 1131.86 892.47 1119.34 896.41 1106.82 899.57 1094.29 901.8 1081.77 903 1069.25 903.1 1056.73 902.11 1044.21 900.07 1031.69 897.07 1019.17 893.26 1006.65 888.83 994.12 883.97 981.6 878.92 969.08 873.93 956.56 869.22 944.04 865.03 931.52 861.54 919 858.93 906.48 857.33 893.96 856.8 881.43 857.37 868.91 859.01 856.39 861.65 843.87 865.17 831.35 869.38 818.83 874.1 806.31 879.11 793.79 884.15 781.26 888.99 768.74 893.41 756.22 897.19 743.7 900.16 731.18 902.17 718.66 903.12 706.14 902.98 693.62 901.74 681.1 899.47 668.57 896.28 656.05 892.31 643.53 887.76 631.01 882.84 618.49 877.78 605.97 872.83 593.45 868.22 580.93 864.17 568.4 860.87 555.88 858.48 543.36 857.11 530.84 856.83 518.32 857.65 505.8 859.52 493.28 862.37 480.76 866.06 468.24 870.41 455.71 875.22 443.19 880.25 430.67 885.27 418.15 890.04 405.63 894.33 393.11 897.94 380.59 900.7 368.07 902.48 355.54 903.18 343.02 902.79 330.5 901.32 317.98 898.83 305.46 895.44 292.94 891.33 280.42 886.67 267.9 881.7 255.38 876.65 242.85 871.76 230.33 867.25 217.81 863.36 205.29 860.25 192.77 858.08 180.25 856.95 167.73 856.92 155.21 857.98 142.68 860.09 130.16 863.14 117.64 866.99 105.12 871.46 92.6 876.34 80.08 881.39 67.56 886.37 55.04 891.05 42.52 895.21 29.99 898.64 17.47 901.19 -0.88 897.89 -5.6 882.89 -4.24 872.74 -2.71 862.59 -1.1 852.44 0.52 842.29 3 827.07 4.43 822 17.44 815.11 30.3 807.17 42.98 798.27 55.52 788.56 67.92 778.2 80.18 767.41 92.34 756.42 104.41 745.46 116.41 734.77 128.37 724.56 140.3 715.02 152.24 706.32 164.2 698.56 176.19 691.81 188.25 686.09 200.38 681.36 212.59 677.54 224.89 674.49 237.29 672.06 249.78 670.05 262.36 668.25 275.03 666.42 287.77 664.36 300.57 661.86 313.41 658.74 326.28 654.85 339.15 650.08 352.01 644.36 364.84 637.68 377.61 630.07 390.31 621.6 402.92 612.4 415.43 602.61 427.82 592.42 440.09 582.02 452.23 571.63 464.25 561.44 476.14 551.66 487.92 542.45 499.6 533.95 511.19 526.26 522.72 519.45 534.21 513.55 545.68 508.51 557.17 504.27 568.69 500.73 580.29 497.74 591.98 495.14 603.81 492.73 615.79 490.34 627.94 487.77 640.29 484.83 652.86 481.37 665.65 477.25 678.68 472.39 691.93 466.71 705.42 460.2 719.11 452.88 733.01 444.81 747.09 436.09 761.31 426.85 775.65 417.25 790.07 407.45 804.53 397.63 814.71 393.69 824.9 389.9 835.09 386.35 845.3 383.11 855.51 380.22 865.73 377.75 875.96 375.72 886.19 374.15 896.43 373.07 906.68 372.45 916.92 372.29 927.18 372.54 937.43 373.16 947.69 374.09 957.94 375.27 968.2 376.63 978.46 378.08 988.72 379.54 998.98 380.93 1009.23 382.18 1019.48 383.21 1029.73 383.95 1039.97 384.33 1050.21 384.33 1060.44 383.88 1070.66 382.99 1080.88 381.62 1091.09 379.8 1101.29 377.53 1111.48 374.85 1121.66 371.81 1131.82 368.45 1141.98 364.84 1152.12 361.06 1162.25 357.17 1172.36 353.26 1182.46 349.42 1192.55 345.71 1202.61 342.2 1212.66 338.98 1222.7 336.09 1232.71 333.58 1242.7 331.5 1252.68 329.86 1262.63 328.67 1272.57 327.94 1282.48 327.64 1292.37 327.75 1302.23 328.22 1312.08 329.01 1321.9 330.04 1331.69 331.25 1341.46 332.57 1351.21 333.92 1360.93 335.22 1370.62 336.4 1380.29 337.37 1389.93 338.08 1399.55 338.47 1409.13 338.49 1418.69 338.1 1428.23 337.28 1437.73 336.01 1447.21 334.3" fill="url(#uuunion-grad3)" filter="url(#uuunion-blur2)"></path></svg>